# xmcd
#
# Track frame offsets:
#	150
#	14580
#	28465
#	48955
#	60692
#	74407
#	91420
#	105417
#	121975
#	135767
#	148490
#	164887
#	180450
#	195137
#	206807
#	223282
#
# Disc length: 3247 seconds
#
# Revision: 2
# Processed by: cddbd v1.5.2PL0 Copyright (c) Steve Scherf et al.
# Submitted via: EasyCDDAExtractor 2011.0.0.0
#
DISCID=f50cad10
DTITLE=Rocío Dúrcal - 16 Éxitos
DYEAR=1900
DGENRE=Balada
TTITLE0=tarde
TTITLE1=Nadie es como tú
TTITLE2=Nuevamente sola
TTITLE3=Que el mundo ruede
TTITLE4=Fue un placer conocerte
TTITLE5=No sirvo para estar sin ti
TTITLE6=Me gustas mucho
TTITLE7=La gata bajo la lluvia
TTITLE8=Jamás me cansaré de ti
TTITLE9=Me nace del corazón
TTITLE10=No me lastimes más
TTITLE11=La muerte del palomo
TTITLE12=Fue tan poco tu cariño
TTITLE13=Juro que nunca volveré
TTITLE14=Déjame
TTITLE15=La verdad de la verdad
EXTD=
EXTT0=
EXTT1=
EXTT2=
EXTT3=
EXTT4=
EXTT5=
EXTT6=
EXTT7=
EXTT8=
EXTT9=
EXTT10=
EXTT11=
EXTT12=
EXTT13=
EXTT14=
EXTT15=
PLAYORDER=
